<?xml version="1.0" encoding="UTF-8" standalone="no"?>
<!-- Created with Inkscape (http://www.inkscape.org/) -->

<svg
   version="1.1"
   id="svg2"
   width="230.30667"
   height="241.82668"
   viewBox="0 0 230.30667 241.82668"
   sodipodi:docname="my-melody-seeklogo.eps"
   xmlns:inkscape="http://www.inkscape.org/namespaces/inkscape"
   xmlns:sodipodi="http://sodipodi.sourceforge.net/DTD/sodipodi-0.dtd"
   xmlns="http://www.w3.org/2000/svg"
   xmlns:svg="http://www.w3.org/2000/svg">
  <defs
     id="defs6">
    <clipPath
       clipPathUnits="userSpaceOnUse"
       id="clipPath28">
      <path
         d="M 860.934,527.109 V 496.68 c 0,-39.559 52.132,-92.7 91.312,-92.7 h 24.891 c 4.785,0 8.664,2.77 18,2.77 12.023,-44.441 -44.746,-103.398 -74.59,-128.789 -36.777,-31.281 -107.856,-54.02 -164.266,-40.891 -63.711,14.84 -95.73,24.27 -140.547,71.129 -33.882,35.449 -58.425,100.762 -56.289,155.039 4.563,115.422 81.77,214.192 198.215,225.25 63.543,6.024 121.434,-13.648 163.113,-47.59 41.813,-34.046 5.465,-29.308 -18.968,-48.128 -12.977,-10.02 -17.696,-12.18 -25.946,-26.622 -1.347,-2.367 -14.925,-39.027 -14.925,-39.039 z"
         clip-rule="evenodd"
         id="path26" />
    </clipPath>
  </defs>
  <sodipodi:namedview
     id="namedview4"
     pagecolor="#ffffff"
     bordercolor="#000000"
     borderopacity="0.25"
     inkscape:showpageshadow="2"
     inkscape:pageopacity="0.0"
     inkscape:pagecheckerboard="0"
     inkscape:deskcolor="#d1d1d1" />
  <g
     id="g8"
     inkscape:groupmode="layer"
     inkscape:label="ink_ext_XXXXXX"
     transform="matrix(1.3333333,0,0,-1.3333333,0,241.82667)">
    <g
       id="g10"
       transform="scale(0.1)">
      <path
         d="m 462.016,740.641 c -3.828,-3.45 -40.625,8.918 -67.832,-12.411 -14.93,-11.718 -34.071,-31.55 -34.071,-53.089 V 646.09 c 0,-17.711 18.242,-32.879 15.758,-44.738 -2,-9.543 -23.101,-15.411 -32.793,-29.543 -19.598,-28.571 -16.25,-66.52 0.863,-94.079 16.715,-26.929 50.418,-39.05 84.317,-40.121 18.191,-0.55 38.172,1.27 54.988,6.493 8.684,2.687 43.457,15.207 48.418,15.207 5.949,-8.649 13.801,-86.719 32.039,-120.129 22.063,-40.41 39.414,-56.078 74.281,-82.059 34.383,-25.621 70.809,-33.609 114.082,-40.851 22.559,-3.79 48.219,-7.54 71.61,-3.309 11.164,2.039 57.613,18.34 61.129,12.891 2.675,-2.891 6.601,-67.122 41.074,-98.653 12.898,-11.789 28.973,-21.758 48.379,-22.219 35.852,-0.878 43.952,12.61 58.222,12.61 20.23,-29.2189 5.82,-51.1916 60.16,-71.2697 13.63,-5.039 45.9,-6.8711 53.39,-11.6406 19.78,-12.5781 19.73,-16.0508 43.17,-23.2188 25.1,-7.7109 96.15,-4.53121 126.89,-4.53121 21.69,0 43.38,-0.09766 65.08,0.03906 C 1405.62,7.12109 1424.09,0 1440.6,0 h 27.68 c 63.19,0 75.4,71.9492 80.24,124.531 2.64,28.879 28.79,139.66 38.74,166 55.95,0 93.1,10.008 118.55,59.918 24.87,48.821 30.66,92.801 4.23,143.102 -46.88,89.179 -205.57,103.23 -230.69,11.418 l -2.15,-4.199 -45.15,23.121 1.64,3.218 c 0.96,11.071 32.19,30.68 41.56,38.692 27.37,23.379 7.56,28.57 -11.74,42.308 -18.24,12.961 -84.71,57.762 -82.04,80.512 7.89,8 65.47,35.16 81.4,44.5 24.56,14.391 50.74,33.59 73.92,53.359 44.61,38.055 79.98,94.063 102.43,150.747 47.75,120.543 11.05,306.443 -62.13,400.113 -40.38,51.67 -77.68,86.04 -130.33,122.84 -36.57,25.56 -46.24,20.47 -63.48,63.81 -11.98,30.12 -26.22,55.41 -42.29,84.99 -54.16,99.73 -182.7,204.76 -302.92,204.76 h -55.386 c -85.743,0 -174.985,-58.63 -229.34,-112.38 -29.481,-29.16 -56.297,-58.96 -77.52,-94.04 -23.719,-39.21 -9.863,-23.87 -51.609,-34.16 -20.227,-4.98 -47.207,-14.23 -64.406,-21.37 C 408.566,1488.97 262.16,1398.4 150.957,1274.44 108.512,1227.13 34.0391,1131.05 17.1445,1066.53 5.50781,1022.09 -8.80859,965.723 6.99219,915.531 20.4453,872.828 49.8203,840.992 94.6953,831.684 200.414,809.75 284.75,843.766 362.184,893.043 c 20.144,12.824 30.164,23.406 48.211,38.184 23.437,19.199 13.601,-40.215 16.601,-57.774 4.492,-26.308 7.442,-45.91 13.313,-72.465 2.879,-13.008 28.836,-51.789 21.707,-60.347 v 0"
         style="fill:#31302f;fill-opacity:1;fill-rule:evenodd;stroke:none"
         id="path12" />
      <path
         d="m 1033.87,1631.12 v -77.47 c 0,-31.69 -18.8,-94.26 -29.19,-118.84 -30.375,-71.76 -113.578,-177.23 -201.856,-177.23 h -27.676 c -115.781,0 -129.929,172.31 -103.457,248.73 30.266,87.35 77.747,153.15 151.426,209.66 88.836,68.12 202.513,90.41 306.433,44.03 80.35,-35.86 111.94,-76.85 162.82,-141.53 7.77,-9.88 30.54,-46.51 34.27,-57.04 22.66,-63.85 22.1,-74.51 74.87,-109.13 166.42,-100.82 277.71,-300.16 203.27,-494.468 -18.97,-54.18 -38.42,-74.711 -67.27,-116.734 -9.75,-14.2 -91.91,-92.637 -113.51,-92.637 l -6.3,0.258 c 9.96,30.25 36.46,50.98 47.2,86.129 9.35,30.625 15.61,61.886 9.09,95.023 -5.47,27.852 -17.8,53.813 -35.39,73.919 -28.94,33.09 -97.95,70.62 -142.57,80.16 -61.75,13.18 -121.28,18.39 -184.71,18.71 -59.01,0.3 -178.136,-21.28 -230.16,-41 -33.773,-12.82 -63.41,-18.04 -96.867,-38.72 -30.684,-18.96 -55.891,-26.963 -84.582,-51.002 C 649.484,929.863 598.41,868.93 578.82,821.664 c -34.832,2.207 -67.254,3.332 -88.66,-30.305 -34.668,0.391 -34.25,118 -33.066,139.586 1.23,22.532 4.621,41.875 18.652,54.668 71.652,54.527 174.738,197.277 158.289,251.217 l -6.375,4.23 C 549.75,1098.65 485.797,1049.87 360.113,935.234 325.121,896.461 217.844,859.145 176.109,859.145 h -40.121 c -150.5427,0 -100.7849,190.375 -55.8044,267.475 116.1134,199.03 337.6404,335.7 555.5434,412.12 l 1.086,-3.08 c 2.781,-11.56 -13.528,-74.41 -13.872,-100.96 -0.464,-35.91 0.84,-73.29 13.481,-104.18 21.551,-52.64 64.012,-106.14 127.664,-106.14 h 42.883 c 184.086,0 262.331,258.47 243.361,403.96 -8.15,12.59 -8.62,5.71 -16.46,2.78 v 0"
         style="fill:#ed0890;fill-opacity:1;fill-rule:evenodd;stroke:none"
         id="path14" />
      <path
         d="m 665.902,680.129 -0.515,1.449 c -1.977,2.461 -17.59,56.113 -23.86,68.852 -9.406,19.039 -36.316,49.308 -38.847,55.539 -11.075,27.347 50.261,98.074 67.48,115.281 55.305,55.27 166.895,111.92 242.074,131.47 86.594,22.51 241.856,47.73 331.226,21.55 58.62,-17.17 83.86,-16.18 135.85,-50.93 37.48,-25.043 73.75,-64.395 73.75,-114.391 v -24.902 c 0,-41.699 -29.95,-92.156 -53.41,-120.918 -13.51,-16.559 -28.79,-28.738 -45.71,-41.481 -11.63,-8.757 -17.17,-11.5 -30.18,-3.039 -13.26,8.59 -19.48,6.172 -34.38,10.063 -42.47,11.09 -94.54,-14.832 -125.71,-42.231 -17.31,-15.211 -28.11,-25.57 -49.06,-38.089 -10.19,-6.09 -15.85,-9.864 -27.28,-15.602 -10.39,-5.23 -21.2,-6.328 -31.54,-12.98 l 1.6,-15.18 c -42.25,-29.012 -34.01,-3.371 -64.941,4.23 -32.09,7.871 -26.551,23.539 -50.867,43.211 -55.09,44.571 -111.441,54.84 -178.891,55.09 -35.507,-2.84 -61.171,-15.902 -96.789,-26.992 v 0"
         style="fill:#ffffff;fill-opacity:1;fill-rule:evenodd;stroke:none"
         id="path16" />
      <path
         d="m 577.68,651.27 c -1.004,-8.442 15.461,-17.122 11.023,-35.848 -1.824,-7.684 -13.301,-22.75 -17.793,-33.492 -4.414,-10.571 -9.082,-27.942 -17.547,-32.25 -11.562,-5.91 -39.414,0.449 -46.25,-4.95 l -1.035,-6.96 38.035,-5.129 c 5.071,-7.313 0,-37.911 -7.886,-43.289 -5.586,-3.813 -32.375,-15.961 -40.024,-18.082 -26.07,-7.309 -75.144,-19.379 -101.07,-7.372 -26.203,12.133 -47.231,36.282 -42.16,70.18 5.976,39.942 24.621,45.332 58.332,58.051 0.015,10.91 -60.364,64.062 -19.375,107.922 49.207,52.66 84.668,-2.84 107.918,2.758 -0.047,36.211 -20.11,67.211 23.359,91.472 31.848,17.778 71.309,-2.23 88.977,-27.562 12.605,-18.047 37.195,-70.879 33.652,-92.449 -1.523,-9.27 -22.602,-24.758 -31.352,-32.43 -25.086,-21.981 -20.523,22.25 -36.804,9.43 v 0"
         style="fill:#fcd006;fill-opacity:1;fill-rule:evenodd;stroke:none"
         id="path18" />
      <path
         d="M 860.934,527.109 V 496.68 c 0,-39.559 52.132,-92.7 91.312,-92.7 h 24.891 c 4.785,0 8.664,2.77 18,2.77 12.023,-44.441 -44.746,-103.398 -74.59,-128.789 -36.777,-31.281 -107.856,-54.02 -164.266,-40.891 -63.711,14.84 -95.73,24.27 -140.547,71.129 -33.882,35.449 -58.425,100.762 -56.289,155.039 4.563,115.422 81.77,214.192 198.215,225.25 63.543,6.024 121.434,-13.648 163.113,-47.59 41.813,-34.046 5.465,-29.308 -18.968,-48.128 -12.977,-10.02 -17.696,-12.18 -25.946,-26.622 -1.347,-2.367 -14.925,-39.027 -14.925,-39.039 v 0"
         style="fill:#ffffff;fill-opacity:1;fill-rule:evenodd;stroke:none"
         id="path20" />
      <g
         id="g22">
        <g
           id="g24"
           clip-path="url(#clipPath28)">
          <path
             d="m 703.863,601.641 c -0.597,16.699 2.625,27.218 16.707,35.949 15.567,9.648 35.032,6.43 43.465,-7.192 15.293,-24.636 2.395,-66.769 -10.496,-108.898 -43.469,7.191 -86.934,14.379 -102.219,39.039 -8.433,13.609 -2.664,32.481 12.895,42.121 14.09,8.738 24.961,6.942 39.648,-1.019 v 0"
             style="fill:#fcd006;fill-opacity:1;fill-rule:nonzero;stroke:none"
             id="path30" />
          <path
             d="m 733.695,452.449 c -0.593,16.692 2.637,27.211 16.719,35.961 15.559,9.629 35.027,6.41 43.469,-7.199 15.281,-24.652 2.383,-66.781 -10.508,-108.91 -43.469,7.187 -86.934,14.379 -102.219,39.039 -8.437,13.621 -2.656,32.48 12.903,42.129 14.089,8.73 24.949,6.941 39.636,-1.02 v 0"
             style="fill:#fcd006;fill-opacity:1;fill-rule:nonzero;stroke:none"
             id="path32" />
          <path
             d="m 836.48,336.398 c -0.605,16.704 2.625,27.231 16.715,35.961 15.547,9.653 35.028,6.422 43.465,-7.179 15.281,-24.668 2.391,-66.789 -10.5,-108.91 -43.469,7.179 -86.937,14.378 -102.219,39.039 -8.437,13.589 -2.66,32.48 12.887,42.121 14.094,8.742 24.965,6.929 39.652,-1.032 v 0"
             style="fill:#fcd006;fill-opacity:1;fill-rule:nonzero;stroke:none"
             id="path34" />
          <path
             d="m 567.926,492.219 c -0.598,16.703 2.625,27.242 16.719,35.961 15.554,9.648 35.027,6.422 43.464,-7.18 15.286,-24.66 2.383,-66.789 -10.507,-108.91 -43.465,7.18 -86.922,14.379 -102.215,39.039 -8.442,13.609 -2.657,32.48 12.898,42.121 14.094,8.738 24.949,6.941 39.641,-1.031 v 0"
             style="fill:#fcd006;fill-opacity:1;fill-rule:nonzero;stroke:none"
             id="path36" />
          <path
             d="m 872.941,621.531 c -0.593,16.699 2.633,27.231 16.727,35.969 15.555,9.641 35.027,6.422 43.465,-7.191 15.285,-24.668 2.383,-66.789 -10.508,-108.918 -43.465,7.199 -86.93,14.39 -102.223,39.039 -8.433,13.609 -2.652,32.492 12.903,42.121 14.093,8.73 24.953,6.937 39.636,-1.02 v 0"
             style="fill:#fcd006;fill-opacity:1;fill-rule:nonzero;stroke:none"
             id="path38" />
          <path
             d="m 667.387,280.031 c -0.594,16.699 2.629,27.231 16.718,35.969 15.555,9.641 35.032,6.422 43.465,-7.199 15.285,-24.641 2.383,-66.77 -10.504,-108.903 -43.468,7.204 -86.933,14.372 -102.218,39.043 -8.438,13.598 -2.657,32.481 12.898,42.129 14.094,8.731 24.953,6.93 39.641,-1.039 v 0"
             style="fill:#fcd006;fill-opacity:1;fill-rule:nonzero;stroke:none"
             id="path40" />
        </g>
      </g>
      <path
         d="m 1104.42,608.719 c 59.82,51.281 99.7,102.261 187.08,94.422 23.77,-2.153 48.37,-19.121 62.51,-31.582 18.76,-16.559 27.31,-30.938 45.24,-47.457 8.71,-8.043 49.69,-30.454 47.92,-45.442 -13.95,-22.379 -82.47,-44.629 -110.32,-44.629 h -40.12 c -31.22,0 -191.42,35.18 -192.31,74.688 v 0"
         style="fill:#ed0890;fill-opacity:1;fill-rule:evenodd;stroke:none"
         id="path42" />
      <path
         d="m 975.762,420.582 h -13.828 c -58.594,0 -106.547,74.238 -75.821,128.379 13.66,24.059 35.098,42.34 63.067,47.66 52.1,9.891 64.22,-29.48 79.16,-30.769 0.78,0.308 8.35,16.679 28.81,22.429 16.26,4.571 26.67,5.207 39.47,-5.301 18.76,-15.41 40.55,-27.289 65.2,-38.589 60.06,-27.559 107.12,-26.821 177.79,-26.95 59.28,-0.14 33.17,15.27 79.68,-15.8 21.59,-14.422 41.89,-22.961 64.76,-39.012 40.61,-28.469 70,-85.309 70,-137.508 v -49.812 c 0,-17.579 -14.48,-75.411 -19.11,-92.93 -9.38,-35.649 -13.68,-55.199 -18.89,-93.1876 -12.62,-92.17968 -84.88,-58.1406 -148.68,-58.6719 -53.6,-0.4297 -164.29,-16.0898 -194.97,20.8594 -18.94,22.832 -19.29,57.8121 0.24,81.0191 25.64,30.532 72.95,22.622 79.46,33.981 l -4.87,-0.758 -8.57,55.098 -3.12,3.613 -20.05,-48.75 1.91,-0.781 c -9.3,-8.422 -43.2,-7.68 -62.22,-34.629 -19.94,-28.203 -12.62,-69.0626 -19.84,-75.6017 -20.96,-16.7812 -77.6,20.3086 -76.12,58.3007 2.44,63.219 79.52,49.899 84.85,54.68 9.23,11.097 -14.15,12.039 15.34,34.5 9.15,6.949 17.59,20.289 21.01,31.539 14.05,46.199 -13.41,77.281 -9.94,86.031 8.64,14.109 46.89,7.52 44.79,74.418 -1.41,45.039 -48.9,59.731 -43.41,73.633 2.28,4.859 21.28,13.148 28.68,20.277 15.63,15.051 -3.18,20.031 -16.35,10.52 -31.44,-22.719 -27.06,-21.457 -63.46,-35.028 -17.17,-6.402 -74.57,-6.16 -83.28,-14.953 -18.11,-18.258 -32.06,-37.906 -61.688,-37.906 v 0"
         style="fill:#ffffff;fill-opacity:1;fill-rule:evenodd;stroke:none"
         id="path44" />
      <path
         d="m 1504.15,483.102 c -4.57,24.32 33,50.418 52.88,53.476 29.18,4.492 58.94,3.942 86.08,-11.726 47.88,-27.633 71.25,-86.551 50.1,-145.211 -19.38,-53.75 -115.34,-98.551 -117.52,-38.411 -3.45,95.348 -67.16,118.61 -71.54,141.872 v 0"
         style="fill:#ffffff;fill-opacity:1;fill-rule:evenodd;stroke:none"
         id="path46" />
      <path
         d="m 1045.18,221.129 c -5.84,-16.109 13.85,-29.609 -4.1,-60.938 -6.96,-12.132 -26.87,-32.91 -43.182,-32.91 h -23.515 c -30.008,0 -56.336,54.297 -62.801,79.731 -6.574,25.84 -2.121,36.617 16.445,51.008 14.18,10.98 26.161,27.14 36.504,35.449 l 2.598,2.722 27.168,-25.961 2.215,2.321 c 7.188,15.59 -19.832,24.371 -10.918,45.199 2.402,5.621 21.066,40.27 24.566,43.48 l 30.43,-4.289 0.2,1.379 c 0.05,28.52 -23.16,2.282 -26.32,25.02 -1.44,10.41 6.91,33.199 11.77,39.332 25.24,31.879 31.88,22.629 71.76,30.629 32.15,6.437 49.74,17.789 77.1,-4.949 22.46,-18.653 31.66,-41.973 19.75,-72.543 -15.47,-39.719 -54.16,-28.129 -62.22,-40.399 -5.27,-8.031 35.48,-21.98 34.16,-64.07 -3.22,-103.61 -114.87,-47.77 -121.61,-50.211 v 0"
         style="fill:#fcd006;fill-opacity:1;fill-rule:evenodd;stroke:none"
         id="path48" />
      <path
         d="m 1194.36,947.684 c 0,-73.957 128.5,-126.098 130.91,-28.989 2.45,98.605 -130.91,152.015 -130.91,28.989 v 0"
         style="fill:#31302f;fill-opacity:1;fill-rule:evenodd;stroke:none"
         id="path50" />
      <path
         d="m 717.047,712.5 c 46.797,-10.941 51.187,55.871 51.187,84.391 0,42.168 -58.25,111.261 -90.093,44.441 -25.864,-54.23 -12.422,-102.844 38.906,-128.832 v 0"
         style="fill:#31302f;fill-opacity:1;fill-rule:evenodd;stroke:none"
         id="path52" />
      <path
         d="m 948.945,767.531 c 4.746,-22.281 39.328,-35.211 61.155,-27.179 69.9,27.726 52.95,58.75 19.35,70.726 -33.583,11.985 -83.825,4.914 -80.505,-43.547 v 0"
         style="fill:#31302f;fill-opacity:1;fill-rule:evenodd;stroke:none"
         id="path54" />
      <path
         d="m 1042.38,772.891 c -19.08,-33.813 -91.864,-38.301 -81.298,9.269 9.406,42.348 103.428,29.899 81.298,-9.269 v 0"
         style="fill:#fee60f;fill-opacity:1;fill-rule:evenodd;stroke:none"
         id="path56" />
      <path
         d="m 966.434,689.328 c 29.339,-30.93 90.586,-19.898 110.436,16.25 11.45,14.25 7.05,47.184 -14.82,6.41 -38.15,-66.187 -108.077,4.231 -95.616,-22.66 v 0"
         style="fill:#31302f;fill-opacity:1;fill-rule:evenodd;stroke:none"
         id="path58" />
    </g>
  </g>
</svg>
